<?xml version="1.0" encoding="iso-8859-1"?>
<!-- Generator: Adobe Illustrator 19.0.0, SVG Export Plug-In . SVG Version: 6.00 Build 0)  -->
<svg version="1.1" id="Layer_1" xmlns="http://www.w3.org/2000/svg" xmlns:xlink="http://www.w3.org/1999/xlink" x="0px" y="0px"
	 viewBox="0 0 447.718 447.718" style="enable-background:new 0 0 447.718 447.718;" xml:space="preserve">
<g transform="translate(0 -1020.36)">
	<g shape-rendering="auto" image-rendering="auto" color-rendering="auto" color-interpolation="sRGB">
		<path style="fill:#5A3392;" d="M223.921,1020.36c11.23,0,22.449,4.419,30.875,13.281l116.469,122.498
			c16.852,17.725,16.852,46.182,0,63.906l-56.844,59.783l-13.75-12.469l-17.375,19.127l13.313,12.063l-41.813,43.967
			c-1.312,1.377-2.782,2.463-4.219,3.629l36.125,61.938c2.223,3.818,0.928,8.717-2.891,10.939c-1.808,1.053-3.956,1.354-5.984,0.842
			c0,0-37.659-8.969-53.969-8.969c-16.31,0-53.969,8.969-53.969,8.969c-4.284,1.082-8.634-1.514-9.717-5.797
			c-0.512-2.029-0.21-4.176,0.842-5.984l36.156-62.031c-1.4-1.137-2.844-2.182-4.125-3.531L76.453,1220.051
			c-16.851-17.723-16.852-46.182,0-63.906l54.969-57.75l12.813,11.594l17.344-19.125l-12.344-11.188l43.812-46.03
			c8.426-8.864,19.645-13.281,30.875-13.281L223.921,1020.36z"/>
		<path style="fill:#FFFFFF;" d="M223.859,1036.015c6.89,0,13.779,2.874,19.25,8.627l116.469,122.593
			c2.662,2.801,4.664,6.023,6.032,9.469c-10.166-3.084-24.767-7.326-44.781-12.406c-31.741-8.055-69.647-16.188-96.969-16.189
			c-27.321,0-65.353,8.135-97.094,16.189c-20.072,5.094-34.631,9.359-44.75,12.438c1.367-3.453,3.362-6.693,6.032-9.5
			l116.562-122.592C210.081,1038.884,216.969,1036.016,223.859,1036.015L223.859,1036.015z"/>
		<path style="fill:#EE746C;" d="M223.859,1164.046c23.999,0,61.824,7.916,93.063,15.846c25.65,6.508,43.462,11.916,50.281,14.029
			c-1.053,5.498-3.576,10.742-7.625,15.002l-116.469,122.592c-5.164,5.438-11.594,8.227-18.094,8.533h-1.156h-1.156
			c-6.5-0.305-12.929-3.098-18.094-8.533L88.047,1208.922c-4.034-4.246-6.597-9.465-7.656-14.939
			c6.709-2.08,24.631-7.553,50.406-14.092C162.035,1171.96,199.86,1164.046,223.859,1164.046L223.859,1164.046z"/>
		<path style="fill:#29A3EC;" d="M209.796,1356.108h14.063h14.063l26.437,45.344c-12.023-2.756-25.442-6.498-40.5-6.498
			c-15.028,0-28.46,3.742-40.5,6.498L209.796,1356.108L209.796,1356.108z"/>
		<path style="fill:#5A3392;" d="M231.796,1399.956c-4.419,0.012-7.991,3.604-7.979,8.023c0.001,0.537,0.057,1.074,0.167,1.602
			c0,0,2.154,11.574,6.625,24.154c2.235,6.291,5.058,12.879,8.719,18.721c3.661,5.84,8.154,11.283,15.031,13.906
			c12.085,4.607,23.166-0.992,31.813-5.875c8.646-4.879,16.139-9.156,21.75-9.156c6.171,0,15.013,3.793,23.906,8.031
			s17.722,9.686,28.5,7.344c17.265-3.752,22.781-20.813,22.781-20.813c1.444-4.178-0.773-8.736-4.952-10.18
			s-8.736,0.773-10.18,4.951c-0.008,0.023-0.017,0.049-0.025,0.072c0,0-3.2,8.643-11.031,10.344
			c-1.77,0.385-9.349-1.961-18.219-6.188s-19.135-9.563-30.781-9.563c-12.206,0-21.58,6.697-29.594,11.219
			c-8.014,4.521-13.375,6.734-18.25,4.875c-1.603-0.607-4.529-3.178-7.219-7.469s-5.165-9.961-7.156-15.563
			c-3.982-11.205-6-21.811-6-21.811c-0.67-3.84-4.009-6.637-7.906-6.625V1399.956z"/>
		<path style="fill:#FB9761;" d="M223.741,1174.653c-21.107,0-54.372,6.961-81.846,13.934c-22.558,5.727-38.224,10.48-44.221,12.34
			c0.926,4.832,3.145,9.447,6.706,13.191l102.431,107.818c4.542,4.783,10.196,7.234,15.913,7.502h1.017h1.017
			c5.716-0.24,11.371-2.721,15.913-7.502l102.513-107.818c3.548-3.73,5.802-8.322,6.733-13.137
			c-5.9-1.832-21.662-6.641-44.331-12.395C278.114,1181.612,244.848,1174.653,223.741,1174.653L223.741,1174.653z"/>
		<path style="fill:#FFFFFF;" d="M133.192,1216.778c1.306,0.197,2.51,0.822,3.425,1.773l31.772,31.889
			c2.577,2.084,2.977,5.861,0.893,8.439c-2.084,2.576-5.862,2.977-8.439,0.893c-0.306-0.248-0.588-0.525-0.84-0.828l-31.89-31.891
			c-2.402-2.283-2.499-6.082-0.216-8.482C129.259,1217.137,131.239,1216.467,133.192,1216.778L133.192,1216.778z"/>
	</g>
	<path style="fill:#FFFFFF;" d="M171.819,1269.198c0,3.314,2.686,6,6,6c0,0,0,0,0,0c3.314,0,6-2.686,6-6l0,0
		c-0.001-3.313-2.687-5.998-6-5.998S171.82,1265.885,171.819,1269.198z"/>
	<g shape-rendering="auto" image-rendering="auto" color-rendering="auto" color-interpolation="sRGB">
		<path style="fill:#EBFEFF;" d="M223.853,1044.515c6.058,0,12.114,2.522,16.924,7.585l102.398,107.783
			c2.34,2.461,4.101,5.291,5.303,8.324c-8.938-2.715-21.775-6.441-39.371-10.906c-27.906-7.084-61.233-14.232-85.254-14.234
			c-24.021,0-57.458,7.15-85.364,14.234c-17.647,4.473-30.447,8.229-39.344,10.934c1.202-3.037,2.956-5.885,5.303-8.352
			L206.929,1052.1C211.739,1047.038,217.796,1044.516,223.853,1044.515L223.853,1044.515z"/>
		<path style="fill:#5A3392;" d="M223.734,1021.299c-4.406,0.069-7.926,3.687-7.875,8.093v318.595
			c-0.063,4.418,3.469,8.051,7.887,8.113s8.051-3.469,8.113-7.887c0.001-0.076,0.001-0.15,0-0.227v-318.596
			c0.051-4.418-3.489-8.042-7.907-8.093C223.879,1021.297,223.807,1021.297,223.734,1021.299L223.734,1021.299z"/>
		<path style="fill:#3CDEF6;" d="M213.363,1361.858h10.496h10.496l19.732,33.846c-8.974-2.057-18.99-4.85-30.229-4.85
			c-11.216,0-21.242,2.793-30.228,4.85L213.363,1361.858L213.363,1361.858z"/>
	</g>
</g>
<g>
</g>
<g>
</g>
<g>
</g>
<g>
</g>
<g>
</g>
<g>
</g>
<g>
</g>
<g>
</g>
<g>
</g>
<g>
</g>
<g>
</g>
<g>
</g>
<g>
</g>
<g>
</g>
<g>
</g>
</svg>
